<svg width="15" height="16" viewBox="0 0 15 16" fill="none" xmlns="http://www.w3.org/2000/svg">
<path d="M14.7869 10.0089C14.6337 9.78395 14.4158 9.55895 14.1334 9.41644C13.9075 9.31145 13.7623 9.13894 13.6332 8.93645C13.2217 8.29144 13.4638 7.44394 14.1496 7.06145C14.9564 6.63394 15.2146 5.68145 14.7466 4.93895L14.206 4.05395C13.7462 3.31145 12.7377 3.04895 11.9389 3.48395C11.2289 3.84395 10.3172 3.60395 9.90576 2.96645C9.77667 2.75645 9.70405 2.53145 9.72019 2.30645C9.74439 2.01395 9.64758 1.73645 9.50235 1.51145C9.20383 1.04645 8.66327 0.731445 8.06623 0.731445H6.92863C6.33966 0.746445 5.7991 1.04645 5.50058 1.51145C5.34729 1.73645 5.25854 2.01395 5.27467 2.30645C5.29081 2.53145 5.2182 2.75645 5.08911 2.96645C4.67764 3.60395 3.76594 3.84395 3.06402 3.48395C2.25721 3.04895 1.25677 3.31145 0.788819 4.05395L0.248257 4.93895C-0.211624 5.68145 0.046555 6.63394 0.845295 7.06145C1.53108 7.44394 1.77313 8.29144 1.36972 8.93645C1.23256 9.13894 1.08734 9.31145 0.861432 9.41644C0.587117 9.55895 0.345074 9.78395 0.215985 10.0089C-0.0825344 10.4739 -0.0663982 11.0589 0.232121 11.5464L0.788819 12.4464C1.08734 12.9264 1.64404 13.2264 2.22494 13.2264C2.49925 13.2264 2.82198 13.1514 3.08015 13.0014C3.28186 12.8739 3.5239 12.8289 3.79015 12.8289C4.58889 12.8289 5.25854 13.4514 5.27467 14.1939C5.27467 15.0564 6.01694 15.7314 6.95284 15.7314H8.0501C8.97793 15.7314 9.72019 15.0564 9.72019 14.1939C9.74439 13.4514 10.414 12.8289 11.2128 12.8289C11.471 12.8289 11.713 12.8739 11.9228 13.0014C12.181 13.1514 12.4956 13.2264 12.778 13.2264C13.3508 13.2264 13.9075 12.9264 14.206 12.4464L14.7708 11.5464C15.0613 11.0439 15.0855 10.4739 14.7869 10.0089Z" fill="#3F3F3F"/>
<path d="M7.50935 10.3542C6.24266 10.3542 5.21802 9.4167 5.21802 8.2392C5.21802 7.0617 6.24266 6.1167 7.50935 6.1167C8.77604 6.1167 9.77649 7.0617 9.77649 8.2392C9.77649 9.4167 8.77604 10.3542 7.50935 10.3542Z" fill="#C8C8C8"/>
</svg>
