<svg width="13" height="13" viewBox="0 0 13 13" fill="none" xmlns="http://www.w3.org/2000/svg">
<path d="M3.25 1.625C3.25 2.05598 3.0788 2.4693 2.77405 2.77405C2.4693 3.0788 2.05598 3.25 1.625 3.25C1.19402 3.25 0.780698 3.0788 0.475951 2.77405C0.171205 2.4693 0 2.05598 0 1.625C0 1.19402 0.171205 0.780698 0.475951 0.475951C0.780698 0.171205 1.19402 0 1.625 0C2.05598 0 2.4693 0.171205 2.77405 0.475951C3.0788 0.780698 3.25 1.19402 3.25 1.625ZM3.25 6.5C3.25 6.93098 3.0788 7.3443 2.77405 7.64905C2.4693 7.95379 2.05598 8.125 1.625 8.125C1.19402 8.125 0.780698 7.95379 0.475951 7.64905C0.171205 7.3443 0 6.93098 0 6.5C0 6.06902 0.171205 5.6557 0.475951 5.35095C0.780698 5.04621 1.19402 4.875 1.625 4.875C2.05598 4.875 2.4693 5.04621 2.77405 5.35095C3.0788 5.6557 3.25 6.06902 3.25 6.5ZM1.625 13C2.05598 13 2.4693 12.8288 2.77405 12.524C3.0788 12.2193 3.25 11.806 3.25 11.375C3.25 10.944 3.0788 10.5307 2.77405 10.226C2.4693 9.92121 2.05598 9.75 1.625 9.75C1.19402 9.75 0.780698 9.92121 0.475951 10.226C0.171205 10.5307 0 10.944 0 11.375C0 11.806 0.171205 12.2193 0.475951 12.524C0.780698 12.8288 1.19402 13 1.625 13ZM8.125 1.625C8.125 2.05598 7.95379 2.4693 7.64905 2.77405C7.3443 3.0788 6.93098 3.25 6.5 3.25C6.06902 3.25 5.6557 3.0788 5.35095 2.77405C5.04621 2.4693 4.875 2.05598 4.875 1.625C4.875 1.19402 5.04621 0.780698 5.35095 0.475951C5.6557 0.171205 6.06902 0 6.5 0C6.93098 0 7.3443 0.171205 7.64905 0.475951C7.95379 0.780698 8.125 1.19402 8.125 1.625ZM6.5 8.125C6.93098 8.125 7.3443 7.95379 7.64905 7.64905C7.95379 7.3443 8.125 6.93098 8.125 6.5C8.125 6.06902 7.95379 5.6557 7.64905 5.35095C7.3443 5.04621 6.93098 4.875 6.5 4.875C6.06902 4.875 5.6557 5.04621 5.35095 5.35095C5.04621 5.6557 4.875 6.06902 4.875 6.5C4.875 6.93098 5.04621 7.3443 5.35095 7.64905C5.6557 7.95379 6.06902 8.125 6.5 8.125ZM8.125 11.375C8.125 11.806 7.95379 12.2193 7.64905 12.524C7.3443 12.8288 6.93098 13 6.5 13C6.06902 13 5.6557 12.8288 5.35095 12.524C5.04621 12.2193 4.875 11.806 4.875 11.375C4.875 10.944 5.04621 10.5307 5.35095 10.226C5.6557 9.92121 6.06902 9.75 6.5 9.75C6.93098 9.75 7.3443 9.92121 7.64905 10.226C7.95379 10.5307 8.125 10.944 8.125 11.375ZM11.375 3.25C11.806 3.25 12.2193 3.0788 12.524 2.77405C12.8288 2.4693 13 2.05598 13 1.625C13 1.19402 12.8288 0.780698 12.524 0.475951C12.2193 0.171205 11.806 0 11.375 0C10.944 0 10.5307 0.171205 10.226 0.475951C9.92121 0.780698 9.75 1.19402 9.75 1.625C9.75 2.05598 9.92121 2.4693 10.226 2.77405C10.5307 3.0788 10.944 3.25 11.375 3.25ZM13 6.5C13 6.93098 12.8288 7.3443 12.524 7.64905C12.2193 7.95379 11.806 8.125 11.375 8.125C10.944 8.125 10.5307 7.95379 10.226 7.64905C9.92121 7.3443 9.75 6.93098 9.75 6.5C9.75 6.06902 9.92121 5.6557 10.226 5.35095C10.5307 5.04621 10.944 4.875 11.375 4.875C11.806 4.875 12.2193 5.04621 12.524 5.35095C12.8288 5.6557 13 6.06902 13 6.5ZM11.375 13C11.806 13 12.2193 12.8288 12.524 12.524C12.8288 12.2193 13 11.806 13 11.375C13 10.944 12.8288 10.5307 12.524 10.226C12.2193 9.92121 11.806 9.75 11.375 9.75C10.944 9.75 10.5307 9.92121 10.226 10.226C9.92121 10.5307 9.75 10.944 9.75 11.375C9.75 11.806 9.92121 12.2193 10.226 12.524C10.5307 12.8288 10.944 13 11.375 13Z" fill="#637381"/>
</svg>
