<svg width="15" height="17" viewBox="0 0 15 17" fill="none" xmlns="http://www.w3.org/2000/svg">
<path d="M10.4378 5.33992C10.13 5.33992 9.72223 5.33232 9.21455 5.33232C7.9764 5.33232 6.95834 4.18929 6.95834 2.79531V0.349555C6.95834 0.15715 6.82062 0.000488281 6.64982 0.000488281H3.04339C1.36034 0.000488281 0 1.54125 0 3.42956V11.6239C0 13.605 1.42515 15.2104 3.18381 15.2104H8.5543C10.2313 15.2104 11.5909 13.6795 11.5909 11.7897V5.68214C11.5909 5.48898 11.4539 5.33308 11.2824 5.33384C10.9941 5.33612 10.6485 5.33992 10.4378 5.33992Z" fill="#C8C8C8"/>
<path d="M1.66143 5.20592C1.95027 5.20592 2.33285 5.19851 2.80917 5.19851C3.97085 5.19851 4.92603 4.08407 4.92603 2.72494V0.340339C4.92603 0.152745 5.05524 0 5.2155 0H8.59918C10.1783 0 11.4546 1.50224 11.4546 3.34333V11.3328C11.4546 13.2643 10.1175 14.8296 8.46743 14.8296H3.42865C1.85526 14.8296 0.579566 13.337 0.579566 11.4944V5.53959C0.579566 5.35125 0.708148 5.19925 0.869035 5.19999C1.1395 5.20222 1.46381 5.20592 1.66143 5.20592Z" fill="#C8C8C8"/>
<path d="M13.8469 6.86092C13.5391 6.86092 13.1313 6.85331 12.6236 6.85331C11.3855 6.85331 10.3674 5.71029 10.3674 4.3163V1.87055C10.3674 1.67815 10.2297 1.52148 10.0589 1.52148H6.45245C4.7694 1.52148 3.40906 3.06225 3.40906 4.95056V13.1449C3.40906 15.126 4.83421 16.7314 6.59287 16.7314H11.9634C13.6403 16.7314 15 15.2005 15 13.3107V7.20314C15 7.00998 14.8629 6.85407 14.6915 6.85483C14.4032 6.85712 14.0575 6.86092 13.8469 6.86092Z" fill="#212B36"/>
<path d="M11.989 1.95295C11.7851 1.71644 11.4292 1.87919 11.4292 2.20696V4.21238C11.4292 5.05349 12.0503 5.74554 12.8044 5.74554C13.2797 5.75163 13.9397 5.75315 14.5001 5.75163C14.7872 5.75086 14.9331 5.36834 14.734 5.13715C14.0147 4.30288 12.7267 2.80775 11.989 1.95295Z" fill="#212B36"/>
<path fill-rule="evenodd" clip-rule="evenodd" d="M7.14125 8.6607H9.44921C9.72944 8.6607 9.95717 8.40745 9.95717 8.09489C9.95717 7.78233 9.72944 7.52832 9.44921 7.52832H7.14125C6.86102 7.52832 6.63398 7.78233 6.63398 8.09489C6.63398 8.40745 6.86102 8.6607 7.14125 8.6607ZM7.14118 12.4588H10.853C11.1332 12.4588 11.361 12.2055 11.361 11.8929C11.361 11.5804 11.1332 11.3264 10.853 11.3264H7.14118C6.86096 11.3264 6.63391 11.5804 6.63391 11.8929C6.63391 12.2055 6.86096 12.4588 7.14118 12.4588Z" fill="#C8C8C8"/>
</svg>
